<svg xmlns="http://www.w3.org/2000/svg" width="740.093" height="513.947" viewBox="0 0 740.093 513.947">
  <path fill="#222222" d="M198.48 109.692c0 20.972-.172 36.935-.497 47.885 0 2.818-2.652 4.542-7.94 5.166-14.886 0-35.228.16-61.03.47-3.97.314-5.955 2.507-5.955 6.57v82.628c0 4.7 1.65 7.05 4.962 7.05 7.272.32 23.98 0 50.115-.94 4.628 0 7.11 2.04 7.442 6.1 1.32 12.52 1.32 33.03 0 61.5 0 3.13-1.658 4.7-4.96 4.7-12.244-.31-29.446-.31-51.605 0-3.644.32-5.628 2.35-5.954 6.11-.667 10.96-.83 32.71-.497 65.26.66 46.01 1 69.95 1 71.83 0 4.08-2.32 6.26-6.94 6.58-22.82 2.19-44 2.35-63.51.47-4.3-.31-6.45-2.5-6.45-6.57V110.16c0-4.692 2.65-7.04 7.94-7.04 15.21-.31 39.2-.31 71.95 0l64.51.468c4.96 0 7.45 2.04 7.45 6.104m85.35 361.96c0 7.512-2.65 11.89-7.94 13.147-7.94 2.18-25.3 2.18-52.1 0-6.62-.64-9.92-5.64-9.92-15.03.66-105.79.82-223.47.5-353.04 0-3.13.33-5.95 1-8.45.99-3.76 2.81-5.64 5.46-5.64 14.22 0 32.25.31 54.09.94 5.62.63 8.6 5.01 8.93 13.14v354.92M489.8 112.97c-.33-16.28-1.16 103.28-2.48 358.67 0 8.13-2.65 12.67-7.94 13.61-15.877 2.5-32.585 2.5-50.116 0-5.956-.94-9.76-4.23-11.41-9.86-10.92-46.95-23.66-100.16-38.21-159.62-1.327-4.7-3.31-7.05-5.95-7.05-1.99 0-2.98 3.28-2.98 9.85v66.67c-.337 37.56-.5 66.82-.5 87.79 0 6.25-4.14 10.17-12.41 11.74-5.626 1.24-13.07 1.71-22.33 1.4-11.904-.32-18.69-.47-20.34-.47-6.62.3-10.085-3.29-10.42-10.8-1.316-43.82-1.65-109.86-.99-198.12.666-85.44 1.82-139.74 3.47-162.91.66-7.52 2.81-11.43 6.45-11.74 7.94-.31 18.687-.31 32.256 0 16.537.63 25.467.94 26.79.94 4.63 0 7.606 3.28 8.93 9.86 16.54 75.74 28.11 124.57 34.735 146.47 2.65 8.45 4.79 12.672 6.45 12.672 2.31 0 3.14-4.85 2.487-14.555-1.32-25.357-1.98-73.55-1.98-144.6 0-7.2 3.3-10.64 9.924-10.33h46.143c6.94.32 10.42 3.76 10.42 10.33m199.46.002c-.33-16.27-1.16 103.28-2.48 358.67 0 8.14-2.65 12.68-7.94 13.62-15.88 2.5-32.58 2.5-50.11 0-5.95-.94-9.76-4.23-11.41-9.86-10.92-46.95-23.66-100.16-38.21-159.62-1.32-4.7-3.31-7.05-5.95-7.05-1.98 0-2.98 3.28-2.98 9.86v66.66c-.33 37.56-.5 66.82-.5 87.79 0 6.26-4.14 10.17-12.41 11.74-5.63 1.24-13.07 1.71-22.33 1.4-11.91-.32-18.69-.47-20.34-.47-6.62.31-10.09-3.29-10.42-10.8-1.32-43.81-1.65-109.86-.99-198.12.66-85.45 1.82-139.74 3.47-162.91.66-7.51 2.81-11.42 6.45-11.74 7.94-.31 18.68-.31 32.25 0 16.54.63 25.47.94 26.79.94 4.63 0 7.6 3.29 8.93 9.86 16.54 75.74 28.11 124.57 34.73 146.47 2.64 8.45 4.79 12.68 6.45 12.68 2.31 0 3.14-4.85 2.48-14.55-1.33-25.35-1.98-73.54-1.98-144.6 0-7.2 3.3-10.64 9.92-10.33h46.14c6.95.32 10.42 3.76 10.42 10.33m-621-49.066v11.83h5.48c2.23 0 4.07-.53 5.52-1.59 1.46-1.06 2.19-2.46 2.19-4.21 0-1.85-.69-3.32-2.06-4.4-1.39-1.08-3.19-1.62-5.41-1.62zm0-21.995v9.923h4.84c2.01 0 3.64-.506 4.88-1.51 1.24-1.006 1.86-2.118 1.86-3.337 0-1.376-.6-2.566-1.79-3.57-1.2-1.008-2.82-1.51-4.89-1.51zM49.44 89.9c-.637 0-1.192-.237-1.67-.713-.475-.476-.712-1.032-.712-1.667V30.04c0-.636.237-1.192.713-1.668.48-.477 1.04-.715 1.67-.715h32.08c2.75 0 5.25.358 7.5 1.072 2.25.71 4.28 1.76 6.08 3.13 1.85 1.48 3.27 3.13 4.25 4.96.98 1.82 1.47 3.93 1.47 6.31 0 2.91-.63 5.48-1.91 7.7-1.27 2.22-3.25 4.02-5.95 5.39 2.75 1.11 4.84 2.49 6.27 4.13 2.65 3.07 3.97 7.01 3.97 11.83 0 5.34-2.03 9.68-6.11 13.02-3.86 3.12-8.89 4.68-15.08 4.68H49.44m78.515-48.03v11.83h9.526c3.87 0 6.8-.45 8.82-1.35 2.01-.9 3.02-2.51 3.02-4.84 0-1.96-.76-3.39-2.3-4.29-1.53-.9-3.75-1.35-6.66-1.35zm.476 26.04V87.5c0 .636-.23 1.19-.71 1.668-.47.48-1.06.717-1.74.717h-17.63c-.63 0-1.19-.24-1.66-.717-.47-.474-.71-1.03-.71-1.665V30.04c0-.636.24-1.192.72-1.668s1.03-.716 1.67-.716h39.85c6.83 0 12.31 1.51 16.44 4.527 4.45 3.282 6.67 7.594 6.67 12.94 0 6.033-1.82 10.4-5.48 13.1-.9.688-1.94 1.336-3.13 1.945-1.19.608-2.5 1.15-3.93 1.627 1.7.9 3.14 1.878 4.33 2.937 1.19 1.06 2.19 2.117 2.98 3.175l10.88 18.34c.53.9.57 1.733.12 2.5-.45.768-1.18 1.152-2.18 1.152h-20.17c-.42 0-.83-.14-1.23-.4s-.7-.58-.91-.95l-10.16-18.9.08.16c-.21-.27-.43-.53-.67-.8-.24-.27-.49-.48-.76-.64-.42-.32-2.06-.48-4.92-.48h-7.7M248.9 27.64c1.11 0 1.89.45 2.34 1.35.45.9.33 1.77-.36 2.62l-27.64 33.36v22.55c0 .63-.24 1.19-.713 1.66-.48.47-1.06.71-1.747.71h-17.79c-.637 0-1.193-.24-1.67-.71-.477-.47-.715-1.03-.715-1.67V64.97l-27.7-33.342c-.745-.846-.89-1.72-.44-2.62.45-.9 1.23-1.35 2.34-1.35h20.565c.266 0 .61.092 1.035.278.42.186.71.385.87.594l16.11 19.927 14.69-19.767c.105-.268.4-.506.875-.72.474-.21.842-.317 1.11-.317h18.813m24.455 43.11c3.386 2.86 8.07 4.287 14.05 4.287 4.764 0 8.39-.475 10.878-1.427v-3.97h-8.335c-.69 0-1.27-.238-1.75-.715-.47-.478-.71-1.06-.71-1.748V56.63c0-.686.24-1.256.71-1.706.48-.448 1.06-.675 1.75-.675h25.4c.69 0 1.27.22 1.75.67.48.45.72 1.02.72 1.7V84.5c0 .476-.17.94-.52 1.39-.34.45-.75.753-1.23.91-3.86 1.22-8.27 2.2-13.22 2.94-4.95.74-10.31 1.11-16.07 1.11-13.07 0-23.08-2.526-30.01-7.58-6.93-5.055-10.4-12.85-10.4-23.38 0-10.322 3.57-18.5 10.72-24.533 7.15-5.926 16.49-8.892 28.03-8.892 5.61 0 10.67.36 15.17 1.072 4.5.715 8.13 1.496 10.88 2.343.42.107.81.357 1.15.753.34.398.54.808.59 1.23L314.2 42.9c.106.9-.16 1.627-.792 2.183-.638.556-1.405.702-2.305.436-2.856-.85-6.298-1.67-10.318-2.46-1.962-.38-3.932-.67-5.918-.88-1.985-.21-3.982-.32-5.994-.32-6.245 0-11.273 1.59-15.084 4.76-3.66 3.17-5.48 7.35-5.48 12.54 0 4.87 1.66 8.73 5 11.59m74.23 0c3.39 2.86 8.07 4.28 14.05 4.28 4.76 0 8.39-.48 10.87-1.43v-3.97h-8.34c-.69 0-1.27-.24-1.75-.72s-.72-1.06-.72-1.75V56.63c0-.686.24-1.256.71-1.706.47-.448 1.06-.675 1.74-.675h25.4c.69 0 1.27.22 1.75.67.47.45.71 1.02.71 1.7V84.5c0 .476-.17.94-.52 1.39-.35.45-.76.753-1.23.91-3.87 1.22-8.27 2.2-13.22 2.94-4.95.74-10.31 1.11-16.08 1.11-13.07 0-23.08-2.526-30.01-7.58-6.93-5.055-10.4-12.85-10.4-23.38 0-10.322 3.57-18.5 10.72-24.533 7.14-5.926 16.48-8.892 28.02-8.892 5.61 0 10.66.36 15.16 1.072 4.5.715 8.12 1.496 10.88 2.343.42.107.8.357 1.15.753.34.398.54.808.6 1.23L388.4 42.9c.102.9-.16 1.627-.797 2.183-.636.556-1.4.702-2.3.436-2.86-.85-6.3-1.67-10.32-2.46-1.96-.38-3.93-.67-5.917-.88-1.987-.21-3.986-.32-5.998-.32-6.25 0-11.276 1.59-15.086 4.76-3.65 3.17-5.474 7.35-5.474 12.54 0 4.87 1.665 8.73 5 11.59m68.67-43.11c.685 0 1.27.24 1.742.71.48.47.72 1.03.72 1.67v19.93h20.25V30.04c0-.636.24-1.192.715-1.668s1.055-.716 1.745-.716h17.47c.69 0 1.27.24 1.75.716s.72 1.032.72 1.668v57.477c0 .635-.24 1.19-.72 1.668-.476.474-1.06.714-1.744.714h-17.47c-.69 0-1.27-.24-1.75-.72s-.715-1.04-.715-1.67V66.32h-20.24v21.197c0 .635-.24 1.19-.72 1.668-.47.474-1.05.714-1.74.714h-17.46c-.63 0-1.19-.24-1.66-.72-.48-.48-.71-1.04-.71-1.67V30.04c0-.636.24-1.192.72-1.668s1.03-.716 1.67-.716h17.47m92.65 2.304c0-.637.24-1.192.72-1.667.48-.477 1.06-.716 1.75-.716h16.36c.63 0 1.19.24 1.67.716.48.475.72 1.03.72 1.667v40.33c0 7.673-2.94 13.098-8.82 16.273-5.4 2.86-13.23 4.29-23.5 4.29-10.585 0-18.445-1.43-23.58-4.29-5.662-3.175-8.492-8.863-8.492-17.068V29.96c0-.637.24-1.192.72-1.667.474-.477 1.06-.716 1.745-.716h16.28c.684 0 1.27.24 1.744.716.48.475.716 1.03.716 1.667v32.707c0 3.653.86 6.246 2.58 7.78 1.72 1.537 4.59 2.302 8.61 2.302 3.81 0 6.56-.81 8.25-2.43 1.69-1.62 2.54-4.25 2.54-7.9V29.96m76.49 48.863c-1.3 2.62-3.15 4.817-5.56 6.59-2.41 1.774-5.35 3.124-8.82 4.048-3.47.93-7.37 1.4-11.71 1.4-2.33 0-4.643-.09-6.95-.28-2.3-.18-4.59-.46-6.87-.83-.53-.1-.99-.18-1.382-.24-.4-.05-.81-.13-1.23-.23v.08c-1.54-.26-2.85-.52-3.93-.75-1.09-.24-1.92-.41-2.5-.52-.48-.1-.91-.36-1.276-.79-.37-.42-.58-.87-.63-1.35l-1.27-15.08c-.1-1 .21-1.76.96-2.26.74-.5 1.56-.54 2.46-.12 2.598 1.28 6.198 2.73 10.8 4.37 4.765 1.59 9.08 2.38 12.94 2.38 2.38 0 4.3-.29 5.758-.87 1.46-.58 2.184-1.43 2.184-2.54 0-.58-.426-1.16-1.27-1.74-1.38-.84-4.5-1.74-9.37-2.7-9.16-1.85-15.51-4.26-19.056-7.22-3.868-3.17-5.8-7.62-5.8-13.33 0-6.67 2.36-11.72 7.1-15.16 4.74-3.44 11.34-5.16 19.81-5.16 3.706 0 7.65.37 11.83 1.11 2.01.37 3.77.72 5.28 1.03 1.51.32 2.765.64 3.77.95.424.11.806.37 1.15.8.346.43.544.85.6 1.27l1.59 13.9c.105 1-.21 1.79-.95 2.34-.75.56-1.56.6-2.47.12-1.64-.79-3.36-1.54-5.16-2.22-1.8-.69-3.68-1.33-5.63-1.91-3.92-1.11-7.44-1.67-10.56-1.67-2.383 0-4.223.19-5.52.56-1.3.37-1.95 1.01-1.95 1.91 0 .85.66 1.51 1.99 1.99 1.214.42 2.7.89 4.445 1.39 1.74.5 3.81.97 6.19 1.39 8.57 1.69 14.45 4.13 17.62 7.3 3.543 3.39 5.32 7.73 5.32 13.02 0 3.44-.65 6.47-1.947 9.09m8.69 11.08c-.632 0-1.19-.24-1.67-.72-.47-.47-.71-1.03-.71-1.66v-57.5c0-.63.24-1.19.72-1.67s1.03-.71 1.66-.71h46.29c.64 0 1.19.24 1.67.72.47.48.71 1.04.71 1.67v11.59c0 .69-.24 1.27-.71 1.74-.48.48-1.04.71-1.67.71h-26.68v6.35h22.78c.64 0 1.19.23 1.67.71.47.47.71 1.03.71 1.66V64.3c0 .687-.24 1.27-.71 1.746-.48.476-1.03.71-1.67.71l-22.78.08v6.67h28.82c.686 0 1.255.23 1.706.71.45.47.67 1.06.67 1.74v11.6c0 .64-.225 1.19-.674 1.67-.45.475-1.02.715-1.71.715h-48.43m73.752 0c-.633 0-1.19-.24-1.665-.71-.48-.48-.72-1.03-.72-1.67V43.29h-16.43c-.69 0-1.26-.238-1.71-.714-.45-.475-.67-1.06-.67-1.746V30.04c0-.636.22-1.192.67-1.668.45-.476 1.02-.716 1.7-.716h54.93c.69 0 1.275.24 1.75.716.476.476.715 1.032.715 1.667v10.79c0 .68-.24 1.27-.71 1.74s-1.06.71-1.75.71h-16.35V87.5c0 .636-.22 1.19-.67 1.668-.45.476-1.02.716-1.703.716H667.8M1.117 1.994h737.34"/>
  <path fill="none" stroke="#222222" stroke-width="4" d="M1.117 1.993h737.34"/>
  <path fill="#222222" d="M0 511.947h740.092"/>
  <path fill="none" stroke="#222222" stroke-width="4" d="M0 511.947h740.092"/>
</svg>
